<svg xmlns="http://www.w3.org/2000/svg" width="256" height="256" id="superman"><path fill="#B71C1C" d="M128 247.322C62.1 247.322 8.678 193.9 8.678 128 8.678 194.274 62.1 248 128 248s119.322-53.726 119.322-120c0 65.9-53.422 119.322-119.322 119.322z" opacity=".2"></path><path fill="#FFF" d="M128 8.678C193.9 8.678 247.322 62.1 247.322 128 247.322 61.726 193.9 8 128 8S8.678 61.726 8.678 128C8.678 62.1 62.1 8.678 128 8.678z" opacity=".2"></path><circle cx="128" cy="128" r="119.322" fill="#F44336"></circle><linearGradient id="a" x1="79.257" x2="219.436" y1="65.124" y2="205.302" gradientUnits="userSpaceOnUse"><stop offset="0" stop-color="#212121" stop-opacity=".2"></stop><stop offset="1" stop-color="#212121" stop-opacity="0"></stop></linearGradient><path fill="url(#a)" d="m247.056 135.892-47.589-47.589-3.175-3.175-.183 16.886-20.469-21.163h-18.172c.492.273 25.785 25.614 26.002 25.739-3.147.028-6.717.053-10.512.068-.171-.173-12.859-12.865-13.217-13.209-.347-.374-.71-.725-1.075-1.074-11.927-12.806-34.254-11.22-36.081-11.22-19.095.409-28.704 4.672-33.529 9.12-.385-.385-7.454-9.296-7.682-9.524H64.518L38.69 105.692c1.501 1.996 12.21 16.209 14.941 18.967.004-.031.013-.063.018-.094.407.471 9.118 11.059 10.052 11.993a1058 1058 0 0 0 7.353 9.167c5.099 6.219 11.512 13.875 14.895 17.257l.019-.015c.368.389 11.15 12.288 12.468 13.607 6.215 6.424 29.378 34.135 29.378 34.135l.087-.102c1.371 1.371 32.097 32.165 32.236 32.331 47.853-13.351 83.57-55.781 86.919-107.046z"></path><path fill="#BF360C" d="M64.518 80.75h16.856c.345-.236.689-.463 1.031-.678H64.518L38.509 105.45l.181.241L64.518 80.75z" opacity=".2"></path><path fill="#FFEB3B" d="M38.69 105.692c1.501 1.996 12.21 16.209 14.941 18.967 2.35-15.86 16.033-35.918 27.744-43.909H64.519L38.69 105.692z"></path><path fill="#BF360C" d="M175.64 80.851s.24.777.281 2.022c.044-1.641-.281-2.699-.281-2.699h-19.442s.49.243 1.27.677h18.172z" opacity=".2"></path><path fill="#FFEB3B" d="M157.468 80.851c2.921 1.622 10.163 6.065 13.334 11.852 4.147-3.588 5.053-7.37 5.12-9.83-.041-1.245-.281-2.022-.281-2.022h-18.173z"></path><path fill="#BF360C" d="M122.585 81.153c2.333 0 38.107-2.592 42.946 25.52 16.072 0 30.531-.23 30.531-.23l.23-21.314 21.013 21.013.186-.224-21.199-21.42-.23 21.537s-14.459.233-30.531.233c-4.839-28.405-40.612-25.786-42.946-25.786-37.829.818-38.434 16.932-38.358 19.496.073-3.593 2.369-18.054 38.358-18.825z" opacity=".2"></path><path fill="#FFEB3B" d="M196.062 106.443s-14.459.23-30.531.23c-4.839-28.112-40.612-25.52-42.946-25.52-35.989.771-38.285 15.232-38.358 18.823.005.171.013.282.014.324.526 16.327 36.499 15.047 38.661 15.047 63.137-4.424 68.437 22.06 68.437 22.06l25.967-31.266-21.013-21.013-.231 21.315zM85.947 162.983c19.615-16.159 38.798 1.815 38.366 4.349 24.342 1.18 46.354.835 47.175-12.431.053-5.613-6.396-7.884-17.746-9.176-18.901-2.13-51.384-1.58-90.042-9.166a1058 1058 0 0 0 7.353 9.167c5.098 6.218 11.512 13.875 14.894 17.257zM155.693 177.873c-3.123 1.004-25.457 7.479-57.258-1.299 6.215 6.424 29.378 34.135 29.378 34.135l27.88-32.836z"></path></svg>